{"title":"Eric Bibb - Live At The Basement - DVDRip  (AC3 Audio) [akhiugo]","uid":4711666,"size":755238912,"categoryP":"video","categoryS":"music_videos","magnet":"?xt=urn:btih:dbda0e24d311032de49a6c08767e95ee2dd1a140&amp;dn=Eric+Bibb+-+Live+At+The+Basement+-+DVDRip++%28AC3+Audio%29+%5Bakhiugo%5D&amp;tr=udp%3A%2F%2Ftracker.openbittorrent.com%3A80&amp;tr=udp%3A%2F%2Fopen.demonii.com%3A1337&amp;tr=udp%3A%2F%2Ftracker.coppersurfer.tk%3A6969&amp;tr=udp%3A%2F%2Fexodus.desync.com%3A6969","seeders":1,"leechers":0,"uploader":"akhiugo","files":-1,"time":1234046966,"description":"Over the last 25 years the stage of Sydney's legendary 'Basement' night club has been graced by Jazz &amp; Blues music's international elite.\n\nThe night Eric Bibb came to town was a pearler. Original tunes, beautifully crafted, a blend of heart, mind and humour which had the full house enthralled.\n\nThis beautiful recording will put you right there in the moment with Eric &amp; Dave Bronze weaving the kind of spell only live music can.\n\n\n\nRecorded live at the Basement Night Club, Sydney, Australia 2002.\n\nTracklisting: \n\n1.  Good Stuff, \n2.  Shingle By Shingle, \n3.  Needed Time, \n4.  Lonesome Valley, \n5.  Don't Ever Let Nobody Drag Your Spirit Down, \n6.  Sebastian's Tune, \n7.  Got To Do Better, \n8.  Panama Hat, \n9.  To Know You Is To Love You, \n10. No More Cane On The Brazos, \n11. Right On Time, \n12. For You, \n13. In My Father's House, \n14. I Heard The Angels Singin' \n\n\n\nFormat                           : AVI\nFormat/Info                      : Audio Video Interleave\nFile size                        : 720 MiB\nDuration                         : 1h 6mn\nOverall bit rate                 : 1 517 Kbps\nWriting application              : VirtualDubMod 1.5.4.1 (build 2178/release)\nWriting library                  : VirtualDubMod build 2178/release\n\nVideo\nFormat                           : MPEG-4 Visual\nFormat profile                   : Streaming Video@L1\nCodec ID                         : XVID\nDuration                         : 1h 6mn\nBit rate                         : 1 062 Kbps\nWidth                            : 464 pixels\nHeight                           : 352 pixels\nDisplay aspect ratio             : 4/3\nFrame rate                       : 25.000 fps\nResolution                       : 24 bits\nColorimetry                      : 4:2:0\nScan type                        : Progressive\nBits/(Pixel*Frame)               : 0.260\nStream size                      : 504 MiB (70%)\nWriting library                  : XviD 1.1.0 (UTC 2005-11-22)\n\nAudio\nFormat                           : AC-3\nFormat/Info                      : Audio Coding 3\nCodec ID                         : 2000\nDuration                         : 1h 6mn\nBit rate mode                    : Constant\nBit rate                         : 448 Kbps\nChannel(s)                       : 6 channels\nChannel positions                : Front: L C R, Surround: L R, LFE\nSampling rate                    : 48.0 KHz\nStream size                      : 213 MiB (30%)\nAlignment                        : Aligned on interleaves\nInterleave, duration             : 96 ms (2.40 video frames)\nInterleave, preload duration     : 96 ms\n\n\nPlease help your fellow pirates by seeding after download!","torrent":{"xt":"urn:btih:dbda0e24d311032de49a6c08767e95ee2dd1a140","amp;dn":"Eric+Bibb+-+Live+At+The+Basement+-+DVDRip++%28AC3+Audio%29+%5Bakhiugo%5D","amp;tr":["udp%3A%2F%2Ftracker.openbittorrent.com%3A80","udp%3A%2F%2Fopen.demonii.com%3A1337","udp%3A%2F%2Ftracker.coppersurfer.tk%3A6969","udp%3A%2F%2Fexodus.desync.com%3A6969"],"infoHash":"dbda0e24d311032de49a6c08767e95ee2dd1a140","infoHashBuffer":{"type":"Buffer","data":[219,218,14,36,211,17,3,45,228,154,108,8,118,126,149,238,45,209,161,64]},"announce":[],"urlList":[]}}